<svg xmlns="http://www.w3.org/2000/svg" viewBox="0 0 1202 455"><path d="M899.68 146.42h-21.83l.07 162.49h88.31v-20.09h-66.48l-.07-142.39zm150.65 133.96a37.2 37.2 0 0 1-27 11.41c-16.62 0-23.32-8.19-23.32-18.85 0-16.12 11.16-23.81 35-23.81a99.07 99.07 0 0 1 15.38 1.24v30zm-22.57-98.49a72.71 72.71 0 0 0-46.42 16.65l7.72 13.37c8.93-5.21 19.85-10.42 35.47-10.42 17.86 0 25.8 9.18 25.8 24.56V234a93.37 93.37 0 0 0-15.13-1.24c-38.2 0-57.55 13.4-57.55 41.43 0 25.05 15.38 37.71 38.7 37.71 15.71 0 30.76-7.19 36-18.85l4 15.88h15.38v-83.1c0-26.3-11.41-43.91-43.91-43.91zm114.34 110.65c-8.19 0-15.38-1-20.84-3.47V213.9c7.44-6.2 16.62-10.67 28.28-10.67 21.09 0 29.27 14.88 29.27 38.95 0 34.23-13.15 50.36-36.71 50.36m9.17-110.64a40 40 0 0 0-30 13.27v-21l-.07-27.78h-21.33l.07 158.52c10.67 4.47 25.3 6.95 41.18 6.95 40.68 0 60.28-26 60.28-70.95 0-35.47-18.11-59-50.11-59M662.38 164c19.35 0 31.75 6.45 39.94 12.9l9.38-16.25c-12.79-11.21-30-17.24-48.33-17.24-46.39 0-78.89 28.28-78.89 85.34 0 59.79 35.06 83.11 75.17 83.11a127.2 127.2 0 0 0 48.35-9.4l-.46-63.88v-20.09H648v20.09h38l.46 48.5c-5 2.48-13.64 4.47-25.3 4.47-32.25 0-53.83-20.29-53.83-63 0-43.41 22.33-64.5 55.07-64.5m153.5-17.63h-21.33l.07 27.29V268c0 26.3 11.41 43.91 43.91 43.91a73.52 73.52 0 0 0 13.15-1.18v-19.18a65.3 65.3 0 0 1-9.92.74c-17.86 0-25.8-9.18-25.8-24.56v-65h35.72v-17.86H816l-.07-38.45zm-75.47 162.49h21.33v-124h-21.33v124zm0-141.15h21.33v-21.34h-21.33v21.33z" fill="#778592"/><path d="M492.2 260.23l-27.56-84.81L410 7.31a9.39 9.39 0 0 0-17.86 0l-54.62 168.1H156.18L101.56 7.31a9.39 9.39 0 0 0-17.86 0l-54.61 168.1-27.56 84.82a18.78 18.78 0 0 0 6.82 21l238.51 173.28 238.52-173.29a18.78 18.78 0 0 0 6.82-21" fill="#f37338"/><path d="M246.86 454.51l90.68-279.1H156.18l90.68 279.1z" fill="#e63e2f"/><path d="M246.86 454.51l-90.68-279.1H29.09l217.77 279.1z" fill="#f2682a"/><path d="M29.09 175.41L1.53 260.23a18.77 18.77 0 0 0 6.82 21l238.51 173.28-217.77-279.1z" fill="#f99c25"/><path d="M29.09 175.41h127.09L101.56 7.31a9.39 9.39 0 0 0-17.86 0l-54.61 168.1z" fill="#e63e2f"/><path d="M246.86 454.51l90.68-279.09h127.1L246.86 454.51z" fill="#f2682a"/><path d="M464.64 175.41l27.56 84.81a18.77 18.77 0 0 1-6.82 21L246.86 454.51l217.78-279.1z" fill="#f99c25"/><path d="M464.64 175.41H337.55l54.62-168.1a9.39 9.39 0 0 1 17.86 0l54.62 168.1z" fill="#e63e2f"/></svg>