<svg xmlns="http://www.w3.org/2000/svg" width="273.4" height="222.2" viewBox="0 0 273.4 222.2"><title>twitter</title><path d="M273.4 26.2c-10.2 4.5-21.1 7.5-32.2 8.8 11.7-7 20.5-18 24.7-31-11 6.5-23.1 11.1-35.6 13.6-21.4-22.5-56.9-23.6-79.4-2.3-14.5 13.7-20.7 34-16.2 53.5C89.5 66.5 47.5 45.2 19 10.2 4.1 35.8 11.7 68.6 36.4 85.1c-8.9-.3-17.6-2.7-25.4-7v.7c0 26.7 18.8 49.7 45 55-8.3 2.3-16.9 2.6-25.3 1 7.3 22.9 28.4 38.5 52.4 39-19.9 15.6-44.4 24-69.7 24-4.5 0-8.9-.3-13.4-.8 25.7 16.5 55.5 25.2 86 25.2 103.2 0 159.6-85.5 159.6-159.6 0-2.4-.1-4.9-.2-7.3 11-7.9 20.5-17.8 28-29.1z" fill="#55acee"/></svg>
